<?xml version="1.0" encoding="utf-8"?>
<!-- Generator: Adobe Illustrator 19.1.0, SVG Export Plug-In . SVG Version: 6.00 Build 0)  -->
<svg version="1.1" id="Layer_1" xmlns="http://www.w3.org/2000/svg" xmlns:xlink="http://www.w3.org/1999/xlink" x="0px" y="0px"
	 viewBox="0 167.3 640 147.7" style="enable-background:new 0 167.3 640 147.7;" xml:space="preserve">
<style type="text/css">
	.st0{fill:#231F20;}
	.st1{enable-background:new    ;}
	.st2{fill:#1AAAE2;}
</style>
<g id="XMLID_3_">
	<g>
		<path class="st0" d="M491.4,244.8h-0.6c0-0.6,0-1.2,0-1.8c0-7.5-2.6-14.4-6.9-19.8v-34.9h7.4v56.5H491.4z"/>
		<path class="st0" d="M490.9,243.1c0,0.6,0,1.2,0,1.8H484v-21.6C488.3,228.7,490.9,235.6,490.9,243.1z"/>
		<path class="st0" d="M459.1,267.5c13.5,0,24.4-10.9,24.4-24.4s-10.9-24.4-24.4-24.4s-24.4,10.9-24.4,24.4
			C434.7,256.5,445.6,267.5,459.1,267.5z M484,223.3v21.5h6.8c-0.9,16.8-14.8,30.1-31.8,30.1c-17.6,0-31.9-14.3-31.9-31.9
			s14.3-31.8,31.9-31.8C469.2,211.2,478.2,215.9,484,223.3z"/>
		<rect x="406.4" y="211.2" class="st0" width="7.4" height="63.7"/>
		<path class="st0" d="M410.1,204c-3.5,0-6.3-2.8-6.3-6.3s2.8-6.3,6.3-6.3s6.3,2.8,6.3,6.3S413.6,204,410.1,204z"/>
		<path class="st0" d="M392.6,243.1V275h-7.4v-11.5C389.8,258,392.6,250.9,392.6,243.1z"/>
		<path class="st0" d="M392.6,241.2v1.9C392.6,242.4,392.6,241.8,392.6,241.2L392.6,241.2z"/>
		<path class="st0" d="M392.6,241.2c0,0.6,0.1,1.2,0.1,1.9c0,7.8-2.8,14.9-7.4,20.5v-20.5v-1.9H392.6z"/>
		<path class="st0" d="M360.8,267.5c13.5,0,24.4-10.9,24.4-24.4v20.5c-5.8,7-14.6,11.4-24.4,11.4c-17.6,0-31.9-14.3-31.9-31.9
			s14.3-31.8,31.9-31.8c16.9,0,30.8,13.3,31.8,30h-7.4v1.9c0-13.5-10.9-24.4-24.4-24.4s-24.4,10.9-24.4,24.4
			C336.4,256.5,347.3,267.5,360.8,267.5z"/>
		<rect x="310.8" y="197.7" class="st0" width="7.5" height="77.3"/>
		<path class="st0" d="M298.7,243.1V275h-7.4v-11.5C295.8,258,298.7,250.9,298.7,243.1z"/>
		<path class="st0" d="M298.7,241.2v1.9C298.7,242.4,298.6,241.8,298.7,241.2L298.7,241.2z"/>
		<path class="st0" d="M298.6,241.2c0,0.6,0.1,1.2,0.1,1.9c0,7.8-2.8,14.9-7.4,20.5v-20.5v-1.9H298.6z"/>
		<path class="st0" d="M266.8,267.5c13.5,0,24.4-10.9,24.4-24.4v20.5c-5.8,7-14.6,11.4-24.4,11.4c-17.6,0-31.9-14.3-31.9-31.9
			s14.3-31.8,31.9-31.8c17,0,30.8,13.3,31.8,30h-7.4v1.9c0-13.5-10.9-24.4-24.4-24.4s-24.4,10.9-24.4,24.4
			C242.4,256.5,253.3,267.5,266.8,267.5z"/>
		<rect x="219.6" y="211.2" class="st0" width="10.2" height="7.4"/>
		<rect x="212.1" y="197.7" class="st0" width="7.5" height="13.6"/>
		<rect x="212.1" y="218.7" class="st0" width="7.5" height="56.2"/>
		<rect x="212.1" y="211.2" class="st0" width="7.5" height="7.4"/>
		<rect x="203.3" y="211.2" class="st0" width="8.8" height="7.4"/>
		<rect x="182.9" y="211.2" class="st0" width="7.4" height="63.7"/>
		<path class="st0" d="M186.6,204c-3.5,0-6.3-2.8-6.3-6.3s2.8-6.3,6.3-6.3s6.3,2.8,6.3,6.3C192.9,201.2,190.1,204,186.6,204z"/>
		<path class="st0" d="M138.6,267.5c13.5,0,24.4-10.9,24.4-24.4s-10.9-24.4-24.4-24.4s-24.4,10.9-24.4,24.4
			C114.2,256.5,125.1,267.5,138.6,267.5z M106.8,243.1c0-17.6,14.3-31.8,31.9-31.8s31.8,14.3,31.8,31.8c0,17.6-14.3,31.9-31.8,31.9
			C121,274.9,106.8,260.7,106.8,243.1z"/>
		<path class="st0" d="M138.6,306.8c-17.6,0-31.9-14.3-31.9-31.9h7.4c0,13.5,10.9,24.4,24.4,24.4s24.4-10.9,24.4-24.4h7.4
			C170.4,292.5,156.2,306.8,138.6,306.8z"/>
		<rect x="85.3" y="211.2" class="st0" width="7.5" height="63.7"/>
		<path class="st0" d="M89,204c-3.5,0-6.3-2.8-6.3-6.3s2.8-6.3,6.3-6.3s6.3,2.8,6.3,6.3S92.5,204,89,204z"/>
		<path class="st0" d="M72.2,188.3v56.6h-0.6c0-0.6,0-1.2,0-1.8c0-7.5-2.6-14.4-6.9-19.8v-35H72.2z"/>
		<path class="st0" d="M71.7,243.1c0,0.6,0,1.2,0,1.8h-6.8v-21.6C69.1,228.7,71.7,235.6,71.7,243.1z"/>
		<path class="st0" d="M64.2,243.1c0-13.5-10.9-24.4-24.4-24.4s-24.4,10.9-24.4,24.4s10.9,24.4,24.4,24.4S64.2,256.5,64.2,243.1z
			 M39.9,211.2c10.1,0,19.1,4.7,24.9,12.1v21.5h6.8c-0.9,16.8-14.8,30.1-31.8,30.1C22.3,274.9,8,260.7,8,243.1
			S22.3,211.2,39.9,211.2z"/>
	</g>
</g>
<rect x="526.3" y="189.6" class="st0" width="3.7" height="81.4"/>
<g class="st1">
	<path class="st2" d="M565.6,244.2h5.3c2.9,0,5-0.7,6.2-2.1c1.2-1.4,1.8-3.4,1.8-5.9c0-2.7-0.7-4.8-2-6.1c-1.3-1.4-3.4-2.1-6.1-2.1
		c-2.6,0-4.6,0.7-6.1,2.2c-1.5,1.4-2.2,3.4-2.2,5.8h-5.9c0-3.7,1.3-6.7,3.9-9.1c2.6-2.4,6-3.6,10.3-3.6c4.3,0,7.8,1.1,10.2,3.3
		c2.5,2.2,3.7,5.5,3.7,9.7c0,2-0.6,3.9-1.7,5.7c-1.2,1.9-2.9,3.3-5.3,4.3c2.8,0.9,4.9,2.3,6,4.2s1.7,4.1,1.7,6.6
		c0,4.3-1.4,7.6-4.1,10s-6.2,3.5-10.6,3.5c-4.3,0-7.8-1.1-10.5-3.4c-2.7-2.2-4.1-5.4-4.1-9.5h5.9c0,2.5,0.8,4.5,2.3,6
		c1.5,1.5,3.7,2.2,6.4,2.2c2.8,0,5-0.7,6.5-2.1c1.5-1.4,2.3-3.6,2.3-6.5c0-2.9-0.7-5.1-2.1-6.4s-3.6-2-6.6-2h-5.3V244.2z"/>
	<path class="st2" d="M595.4,270.1V224h14c6.1,0,11,1.8,14.6,5.5c3.6,3.7,5.4,8.5,5.4,14.5v6.2c0,6-1.8,10.9-5.4,14.5
		c-3.6,3.6-8.7,5.4-15.1,5.4H595.4z M601.2,228.7v36.6h7.6c4.9,0,8.6-1.4,11-4.1c2.4-2.8,3.6-6.4,3.6-11.1v-6.3
		c0-4.7-1.2-8.4-3.6-11.1c-2.4-2.7-5.9-4-10.5-4H601.2z"/>
</g>
<g class="st1">
	<path class="st0" d="M560.9,213.6v-19h6.1c2,0,3.6,0.4,4.7,1.3c1.1,0.8,1.6,2.1,1.6,3.9c0,0.9-0.3,1.6-0.8,2.3
		c-0.5,0.7-1.2,1.1-2.1,1.5v0c1.1,0.2,2,0.8,2.7,1.6c0.6,0.9,1,1.9,1,3.1c0,1.8-0.6,3.1-1.7,4s-2.6,1.3-4.6,1.3H560.9z M563.3,202.7
		h4.3c1,0,1.8-0.3,2.4-0.8s0.9-1.3,0.9-2.2c0-1.1-0.3-1.8-1-2.4s-1.6-0.8-2.9-0.8h-3.7V202.7z M563.3,204.7v7h4.5
		c1.2,0,2.2-0.3,2.8-0.9c0.7-0.6,1-1.4,1-2.5c0-1.1-0.3-2-0.8-2.7c-0.6-0.6-1.4-1-2.6-1H563.3z"/>
	<path class="st0" d="M589.1,204.8h-8.8v6.9h10.1v1.9h-12.5v-19h12.4v2h-9.9v6.2h8.8V204.8z"/>
	<path class="st0" d="M606.5,196.6h-6v17h-2.4v-17h-6v-2h14.4V196.6z"/>
	<path class="st0" d="M619,208.5h-8l-1.9,5.1h-2.5l7.3-19h2.1l7.2,19h-2.5L619,208.5z M611.8,206.6h6.6l-3.3-9L611.8,206.6z"/>
</g>
</svg>
