<?xml version="1.0" encoding="utf-8"?>
<!-- Generator: Adobe Illustrator 19.0.0, SVG Export Plug-In . SVG Version: 6.00 Build 0)  -->
<svg version="1.1" id="Layer_1" xmlns="http://www.w3.org/2000/svg" xmlns:xlink="http://www.w3.org/1999/xlink" x="0px" y="0px"
	 viewBox="-47 331.8 500 183" style="enable-background:new -47 331.8 500 183;" xml:space="preserve">
<style type="text/css">
	.st0{fill:#F44040;}
</style>
<g>
	<path d="M21.1,339.6c2.7,0,2.7,3.6,0,3.6H-8.5l0.1,70.5c0,1.5-1.1,2.3-2.1,2.3s-1.9-0.7-1.9-2.3v-70.5h-29.4c-2.7,0-2.7-3.6,0-3.6
		C-20.9,339.6,0.1,339.6,21.1,339.6z"/>
	<path d="M37.7,377.4h49.5v-35.5c0-3,3.9-3,3.9,0v71.7c0,2.7-3.9,2.7-3.9,0V381l-49.5-0.1v32.8c0,2.7-3.8,2.7-3.8,0v-71.8
		c0-3,3.8-3,3.8,0V377.4z"/>
	<path d="M112.1,341.2c0-3,4.1-3,4.1,0v72.3c0,2.7-4.1,2.7-4.1,0V341.2z"/>
	<path d="M190.6,341.4c0-3,3.9-3,3.9,0v71.7c0,2.9-2.5,2.9-4,1l-49.7-67.6v66.8c0,2.9-3.8,2.9-3.8,0v-71.6c0-3,2.4-3.3,4-1.2
		l49.5,67.6v-66.7H190.6z"/>
	<path d="M268.4,339.4c1.9-1.8,4.8,1,3,2.7l-34,31.5l36,39.2c2.1,1.9-1,4.5-2.7,2.6l-36-39.3l-15.2,14.1v23.9c0,1.1-0.8,1.9-1.9,1.9
		c-1,0-1.9-0.8-1.9-1.9v-73.2c0-1.1,0.9-2,1.9-2c1.1,0,1.9,1,1.9,2v44.6L268.4,339.4z"/>
	<path d="M287.2,341.2c0-3,4.1-3,4.1,0v72.3c0,2.7-4.1,2.7-4.1,0V341.2z"/>
	<path d="M365.8,341.4c0-3,3.9-3,3.9,0v71.7c0,2.9-2.5,2.9-4,1L316,346.5v66.8c0,2.9-3.8,2.9-3.8,0v-71.6c0-3,2.4-3.3,4-1.2
		l49.5,67.6L365.8,341.4L365.8,341.4z"/>
	<path d="M421.7,416.7c-19.5-0.2-36.4-17.2-35.8-39.7c0.6-18.2,12.6-35.3,30.3-38.2c11.3-1.8,24.9,1.7,32.7,10.6
		c1.8,2.3-0.9,4.8-2.7,2.7c-7-8.1-19.2-11.1-29.3-9.4c-15.9,2.6-26.6,18.1-27.2,34.4c-0.5,19.9,14.7,35.3,32.3,35.6
		c9.9,0.1,20.4-4.4,26.1-13.1v-19.9h-24.3c-2.2,0-2.2-3.6,0-3.6h25.7c1.6,0,2.1,1,2.1,2.3v21.2c0,1-0.1,2-0.8,2.7
		C443.8,411.7,432.7,416.8,421.7,416.7z"/>
	<path class="st0" d="M-26,481.4l-10.2,21.1c-1.1,2.3-4.5,0.5-3.3-1.9l36.3-74.7c0.3-0.7,1-1.1,1.7-1.1s1.3,0.4,1.6,1.1l36.4,74.7
		c1.1,2.4-2.2,4.2-3.3,1.9L23,481.4H-26z M-1.5,430.6l-22.8,47.2h45.6L-1.5,430.6z"/>
	<path class="st0" d="M50,502.7c-1.7,0-3.1-1.4-3.1-3.1v-69.7c0-1.7,1.4-3,3.1-3c10,0,16.3,0,26.5,0c44.8,0,44.8,75.8,0,75.8
		C66.3,502.7,60,502.7,50,502.7z M50.7,499c9.8,0,15.9,0,25.8,0c39.7,0,39.7-68.5,0-68.5c-9.9,0-16,0-25.8,0V499z"/>
	<path class="st0" d="M127.4,502.7c-1.7,0-3.1-1.4-3.1-3.1v-69.7c0-1.7,1.4-3,3.1-3c10,0,16.3,0,26.5,0c44.8,0,44.8,75.8,0,75.8
		C143.7,502.7,137.4,502.7,127.4,502.7z M128.1,499c9.8,0,15.9,0,25.8,0c39.7,0,39.7-68.5,0-68.5c-9.9,0-16,0-25.8,0V499z"/>
	<path class="st0" d="M203.8,428.3c0-3,4.1-3,4.1,0v72.3c0,2.7-4.1,2.7-4.1,0V428.3z"/>
	<path class="st0" d="M283.1,426.8c2.7,0,2.7,3.6,0,3.6h-29.6l0.1,70.5c0,1.5-1.1,2.3-2.1,2.3c-0.9,0-1.9-0.7-1.9-2.3v-70.5h-29.5
		c-2.7,0-2.7-3.6,0-3.6C241.1,426.8,262.1,426.8,283.1,426.8z"/>
	<path class="st0" d="M296.1,428.3c0-3,4.1-3,4.1,0v72.3c0,2.7-4.1,2.7-4.1,0V428.3z"/>
	<path class="st0" d="M313,429.3c-1-2.5,2.7-4.2,3.9-1.4l33.2,68.8l32.5-68.6c0.9-2.5,4.9-1.5,3.7,1.4l-34.6,72.9
		c-0.7,1.4-2.4,1.5-3.3,0.1L313,429.3z"/>
</g>
<path class="st0" d="M446.3,502.8h-47.1c-1.1,0-2-1-2-2.1s0.9-2.1,2-2.1h47.1c1.1,0,2,1,2,2.1S447.4,502.8,446.3,502.8z"/>
<path class="st0" d="M446.3,432.3h-47.1c-1.1,0-2-1-2-2.1c0-1.2,0.9-2.1,2-2.1h47.1c1.1,0,2,1,2,2.1
	C448.4,431.4,447.4,432.3,446.3,432.3z"/>
<path class="st0" d="M446.3,468.6h-47.1c-1.1,0-2-1-2-2.1s0.9-2.1,2-2.1h47.1c1.1,0,2,1,2,2.1S447.4,468.6,446.3,468.6z"/>
</svg>
